<?xml version="1.0" encoding="UTF-8" standalone="no"?>
<!-- Created with Inkscape (http://www.inkscape.org/) -->

<svg
   version="1.1"
   id="svg1"
   width="1024"
   height="1024"
   viewBox="0 0 1024 1024"
   sodipodi:docname="GPGap_20250418.svg"
   inkscape:version="1.4.1-rc (06eac75fbf, 2025-03-29)"
   inkscape:export-filename="../df1573ae/GPGap.png"
   inkscape:export-xdpi="67.5"
   inkscape:export-ydpi="67.5"
   xmlns:inkscape="http://www.inkscape.org/namespaces/inkscape"
   xmlns:sodipodi="http://sodipodi.sourceforge.net/DTD/sodipodi-0.dtd"
   xmlns="http://www.w3.org/2000/svg"
   xmlns:svg="http://www.w3.org/2000/svg">
  <defs
     id="defs1" />
  <sodipodi:namedview
     id="namedview1"
     pagecolor="#ffffff"
     bordercolor="#000000"
     borderopacity="0.25"
     inkscape:showpageshadow="2"
     inkscape:pageopacity="0.0"
     inkscape:pagecheckerboard="0"
     inkscape:deskcolor="#d1d1d1"
     showgrid="false"
     inkscape:zoom="0.70710678"
     inkscape:cx="825.90072"
     inkscape:cy="424.97118"
     inkscape:window-width="2490"
     inkscape:window-height="1016"
     inkscape:window-x="0"
     inkscape:window-y="0"
     inkscape:window-maximized="1"
     inkscape:current-layer="g1"
     inkscape:export-bgcolor="#000000ff" />
  <g
     inkscape:groupmode="layer"
     inkscape:label="Image"
     id="g1">
    <path
       d="m 0,0 v 492 532 h 512 512 V 492 0 H 512 Z"
       id="path23"
       sodipodi:nodetypes="ccccccccc"
       style="display:inline" />
    <g
       id="g4"
       transform="translate(0,-27.32234)">
      <g
         id="g15"
         transform="translate(-14.5)"
         style="display:inline">
        <g
           id="g81"
           style="fill:#00ff00;fill-opacity:1"
           transform="translate(189.25,-20)">
          <path
             id="rect59"
             style="fill:#00ff00;fill-opacity:1;stroke:none;stroke-width:7.95241"
             d="m 167,690 v 160 h 30 v -51 h 70 v -15 h 15 v -15 -49 -15 h -15 v -15 h -70 z m 30,30 h 55 v 49 h -55 z" />
        </g>
        <path
           id="rect63"
           style="fill:#00ff00;fill-opacity:1;stroke:none;stroke-width:7.95241"
           d="m 231,670 v 15 h -15 v 130 h 15 v 15 h 15 70 v -15 h 15 v -15 -55 h -30 -15 v 30 h 15 v 25 H 246 V 700 h 55 v 15 h 30 v -15 -15 h -15 v -15 h -70 z" />
        <g
           id="g10"
           transform="translate(49.75,-3.9655767)">
          <path
             id="rect76"
             style="fill:#00ff00;fill-opacity:1;stroke:none;stroke-width:6.28694"
             d="M 587 714.00081 L 587 739.00081 L 652 739.00081 L 652 762.00081 L 587 762.00081 L 587 787.00081 L 587 809.00081 L 587 821.50081 L 599.5 821.50081 L 599.5 834.00081 L 652 834.00081 L 677 834.00081 L 677 726.50081 L 664.5 726.50081 L 664.5 714.00081 L 652 714.00081 L 587 714.00081 z M 612 787.00081 L 652 787.00081 L 652 809.00081 L 612 809.00081 L 612 787.00081 z " />
        </g>
        <path
           id="path10"
           style="fill:#00ff00;fill-opacity:1;stroke:none;stroke-width:7.95241"
           d="m 511.5,670 v 15 h -15 v 130 h 15 v 15 h 15 70 v -15 h 15 v -15 -55 h -30 -15 v 30 h 15 v 25 h -55 V 700 h 55 v 15 h 30 v -15 -15 h -15 v -15 h -70 z" />
        <g
           id="g14">
          <path
             id="rect11"
             style="fill:#00ff00;stroke-width:10.4942"
             d="M 752 710.00007 L 752 870.00007 L 777 870.00007 L 777 830.00007 L 824.5 830.00007 L 824.5 817.50007 L 837 817.50007 L 837 805.00007 L 837 735.00007 L 837 722.50007 L 824.5 722.50007 L 824.5 710.00007 L 777 710.00007 L 752 710.00007 z M 777 735.00007 L 812 735.00007 L 812 805.00007 L 777 805.00007 L 777 735.00007 z " />
        </g>
      </g>
      <g
         id="g3"
         transform="translate(1.91707)">
        <path
           id="rect1"
           style="fill:#00ff00;fill-opacity:1;stroke-width:7.90851"
           d="m 258.28109,355 c -14.99259,0 -27.0625,12.06991 -27.0625,27.0625 v 195.875 c 0,14.99259 12.06991,27.0625 27.0625,27.0625 h 234.9375 v -75.03906 a 50,50 0 0 1 -2,0.0391 50,50 0 0 1 -50,-50 50,50 0 0 1 50,-50 50,50 0 0 1 2,0.0391 V 355 Z" />
        <path
           id="path1"
           style="fill:#00ff00;fill-opacity:1;stroke-width:7.90851"
           d="m 526.94727,355 v 80.76172 A 44.343147,44.343147 0 0 0 485.65625,480 44.343147,44.343147 0 0 0 526.94727,524.23828 V 605 h 234.9375 c 14.99259,0 27.0625,-12.06991 27.0625,-27.0625 V 382.0625 C 788.94727,367.06991 776.87736,355 761.88477,355 Z" />
        <path
           style="fill:#00ff00;fill-opacity:1;stroke:none;stroke-width:7.93701"
           d="M 263.21859,337.31285 V 281.7149 c 0,-38.28443 26.20511,-73.07022 99,-73.07022 72.79489,0 99,35.28825 99,73.07022 v 55.08173 h -38 v -40.25721 c 0,-26.57878 -10.96036,-47.33705 -61,-47.33705 -50.03964,0 -61,21.39298 -61,47.33705 v 40.25721 z"
           id="path58"
           sodipodi:nodetypes="cczcccszccc" />
      </g>
    </g>
    <g
       id="g16"
       transform="translate(-37.87263,-35.28399)"
       style="display:inline">
      <path
         style="font-weight:bold;font-size:9.87778px;line-height:0.94;font-family:'Ubuntu Mono';-inkscape-font-specification:'Ubuntu Mono Bold';text-align:start;letter-spacing:0px;text-anchor:start;fill:#000000;fill-opacity:1;stroke-width:18.4776"
         d="m 359.86949,589.28399 h 60.00314 v -120 h -120 v 118.5489"
         id="path15" />
      <path
         style="font-weight:bold;font-size:9.87778px;line-height:0.94;font-family:'Ubuntu Mono';-inkscape-font-specification:'Ubuntu Mono Bold';text-align:start;letter-spacing:0px;text-anchor:start;fill:#00ff00;fill-opacity:1;stroke-width:12.3183"
         d="m 359.87052,569.28399 h 40.00211 v -80 h -80 v 79.0326"
         id="path16" />
      <path
         style="font-weight:bold;font-size:9.87778px;line-height:0.94;font-family:'Ubuntu Mono';-inkscape-font-specification:'Ubuntu Mono Bold';text-align:start;letter-spacing:0px;text-anchor:start;fill:#000000;fill-opacity:1;stroke-width:6.15919"
         d="m 359.87158,549.28399 h 20.00105 v -40 h -40 v 39.5163"
         id="path14" />
    </g>
    <g
       id="g27"
       style="display:none">
      <path
         style="font-weight:bold;font-size:9.87778px;line-height:0.94;font-family:'Ubuntu Mono';-inkscape-font-specification:'Ubuntu Mono Bold';text-align:start;letter-spacing:0px;text-anchor:start;fill:#00ff00;fill-opacity:1;stroke-width:3.13275"
         d="m 830.82795,449.85 h 9.9894 V 429.13061 H 820.8396 v 20.46884"
         id="path3-2-6-1" />
      <path
         style="font-weight:bold;font-size:9.87778px;line-height:0.94;font-family:'Ubuntu Mono';-inkscape-font-specification:'Ubuntu Mono Bold';text-align:start;letter-spacing:0px;text-anchor:start;fill:#00ff00;fill-opacity:1;stroke-width:3.13275"
         d="m 864.12001,468.64481 h -19.97775 v 20.71939 h 19.97775 19.97775 19.97671 v -20.71939 h -19.97671"
         id="path2-0-6" />
      <path
         style="font-weight:bold;font-size:9.87778px;line-height:0.94;font-family:'Ubuntu Mono';-inkscape-font-specification:'Ubuntu Mono Bold';text-align:start;letter-spacing:0px;text-anchor:start;fill:#00ff00;fill-opacity:1;stroke-width:3.13275"
         d="m 210.84019,462.64481 h -19.97775 v 20.71939 h 19.97775 19.97775 19.97671 v -20.71939 h -19.97671"
         id="path4" />
      <path
         style="font-weight:bold;font-size:9.87778px;line-height:0.94;font-family:'Ubuntu Mono';-inkscape-font-specification:'Ubuntu Mono Bold';text-align:start;letter-spacing:0px;text-anchor:start;fill:#00ff00;fill-opacity:1;stroke-width:3.13275"
         d="m 215.58573,381.24746 h -19.97775 v 20.71939 h 19.97775 19.97775 19.97671 v -20.71939 h -19.97671"
         id="path8" />
      <path
         style="font-weight:bold;font-size:9.87778px;line-height:0.94;font-family:'Ubuntu Mono';-inkscape-font-specification:'Ubuntu Mono Bold';text-align:start;letter-spacing:0px;text-anchor:start;fill:#00ff00;fill-opacity:1;stroke-width:3.13275"
         d="m 170.3361,402.12161 h 9.9894 v -20.71939 h -19.97775 v 20.46884"
         id="path9" />
      <path
         style="font-weight:bold;font-size:9.87778px;line-height:0.94;font-family:'Ubuntu Mono';-inkscape-font-specification:'Ubuntu Mono Bold';text-align:start;letter-spacing:0px;text-anchor:start;fill:#00ff00;fill-opacity:1;stroke-width:1.80971"
         d="m 824.35592,553.6088 h -6.66678 v 20.71939 h 6.66678 6.66678 6.66644 V 553.6088 h -6.66644"
         id="path20" />
      <path
         style="font-weight:bold;font-size:9.87778px;line-height:0.94;font-family:'Ubuntu Mono';-inkscape-font-specification:'Ubuntu Mono Bold';text-align:start;letter-spacing:0px;text-anchor:start;fill:#00ff00;fill-opacity:1;stroke-width:2.55932"
         d="m 790.28132,489.93042 h -13.33356 v 20.71939 h 13.33356 13.33357 13.33287 v -20.71939 h -13.33287"
         id="path22" />
    </g>
    <g
       id="g26"
       style="display:none;fill:#1a1a1a"
       transform="translate(55.154329,-13.857864)">
      <path
         style="font-weight:bold;font-size:9.87778px;line-height:0.94;font-family:'Ubuntu Mono';-inkscape-font-specification:'Ubuntu Mono Bold';text-align:start;letter-spacing:0px;text-anchor:start;fill:#1a1a1a;fill-opacity:1;stroke-width:3.13275"
         d="m 754.79881,531.82287 h 9.9894 v -20.71939 h -19.97775 v 20.46884"
         id="path3-2-3" />
      <path
         style="font-weight:bold;font-size:9.87778px;line-height:0.94;font-family:'Ubuntu Mono';-inkscape-font-specification:'Ubuntu Mono Bold';text-align:start;letter-spacing:0px;text-anchor:start;fill:#1a1a1a;fill-opacity:1;stroke-width:3.13275"
         d="m 735.07613,449.71939 h 9.9894 V 429 h -19.97775 v 20.46884"
         id="path3-2-6" />
      <path
         style="font-weight:bold;font-size:9.87778px;line-height:0.94;font-family:'Ubuntu Mono';-inkscape-font-specification:'Ubuntu Mono Bold';text-align:start;letter-spacing:0px;text-anchor:start;fill:#1a1a1a;fill-opacity:1;stroke-width:3.13275"
         d="m 718.53582,387.24746 h -19.97775 v 20.71939 h 19.97775 19.97775 19.97671 v -20.71939 h -19.97671"
         id="path2" />
      <path
         style="font-weight:bold;font-size:9.87778px;line-height:0.94;font-family:'Ubuntu Mono';-inkscape-font-specification:'Ubuntu Mono Bold';text-align:start;letter-spacing:0px;text-anchor:start;fill:#1a1a1a;fill-opacity:1;stroke-width:3.13275"
         d="M 765.29595,469.1644 H 745.3182 v 20.71939 h 19.97775 19.97775 19.97671 V 469.1644 H 785.2737"
         id="path2-0" />
      <path
         style="font-weight:bold;font-size:9.87778px;line-height:0.94;font-family:'Ubuntu Mono';-inkscape-font-specification:'Ubuntu Mono Bold';text-align:start;letter-spacing:0px;text-anchor:start;fill:#1a1a1a;fill-opacity:1;stroke-width:2.41548"
         d="m 775.9283,551.82598 h -11.87692 v 20.71939 h 11.87692 11.87692 11.8763 v -20.71939 h -11.8763"
         id="path2-0-7" />
      <path
         style="font-weight:bold;font-size:9.87778px;line-height:0.94;font-family:'Ubuntu Mono';-inkscape-font-specification:'Ubuntu Mono Bold';text-align:start;letter-spacing:0px;text-anchor:start;fill:#1a1a1a;fill-opacity:1;stroke-width:3.13275"
         d="M 344.84496,401.74361 H 324.86721 V 422.463 h 19.97775 19.97775 19.97671 v -20.71939 h -19.97671"
         id="path2-0-7-2" />
      <path
         style="font-weight:bold;font-size:9.87778px;line-height:0.94;font-family:'Ubuntu Mono';-inkscape-font-specification:'Ubuntu Mono Bold';text-align:start;letter-spacing:0px;text-anchor:start;fill:#1a1a1a;fill-opacity:1;stroke-width:3.13275"
         d="m 399.27233,581.37246 v -20.71939 h -19.97775 v 20.46884"
         id="path5"
         sodipodi:nodetypes="cccc" />
      <path
         style="font-weight:bold;font-size:9.87778px;line-height:0.94;font-family:'Ubuntu Mono';-inkscape-font-specification:'Ubuntu Mono Bold';text-align:start;letter-spacing:0px;text-anchor:start;fill:#1a1a1a;fill-opacity:1;stroke-width:3.13275"
         d="m 227.22191,443.36787 h 9.9894 v -20.71939 h -19.97775 v 20.46884"
         id="path6" />
      <path
         style="font-weight:bold;font-size:9.87778px;line-height:0.94;font-family:'Ubuntu Mono';-inkscape-font-specification:'Ubuntu Mono Bold';text-align:start;letter-spacing:0px;text-anchor:start;fill:#1a1a1a;fill-opacity:1;stroke-width:3.13275"
         d="m 276.39124,381.24746 h -19.97775 v 20.71939 h 19.97775 19.97775 19.97671 v -20.71939 h -19.97671"
         id="path7" />
      <path
         style="font-weight:bold;font-size:9.87778px;line-height:0.94;font-family:'Ubuntu Mono';-inkscape-font-specification:'Ubuntu Mono Bold';text-align:start;letter-spacing:0px;text-anchor:start;fill:#1a1a1a;fill-opacity:1;stroke-width:3.13275"
         d="m 735.74423,593.32879 h 9.9894 V 572.6094 h -19.97775 v 20.46884"
         id="path11" />
      <path
         style="font-weight:bold;font-size:9.87778px;line-height:0.94;font-family:'Ubuntu Mono';-inkscape-font-specification:'Ubuntu Mono Bold';text-align:start;letter-spacing:0px;text-anchor:start;fill:#1a1a1a;fill-opacity:1;stroke-width:3.13275"
         d="m 716.06348,552.66786 h 9.9894 v -20.71939 h -19.97775 v 20.46884"
         id="path12" />
      <path
         style="font-weight:bold;font-size:9.87778px;line-height:0.94;font-family:'Ubuntu Mono';-inkscape-font-specification:'Ubuntu Mono Bold';text-align:start;letter-spacing:0px;text-anchor:start;fill:#1a1a1a;fill-opacity:1;stroke-width:3.13275"
         d="m 776.22587,469.71939 h 9.9894 V 449 h -19.97775 v 20.46884"
         id="path13" />
      <path
         style="font-weight:bold;font-size:9.87778px;line-height:0.94;font-family:'Ubuntu Mono';-inkscape-font-specification:'Ubuntu Mono Bold';text-align:start;letter-spacing:0px;text-anchor:start;fill:#1a1a1a;fill-opacity:1;stroke-width:3.13275"
         d="m 427.50074,541.18543 h 9.9894 v -20.71939 h -19.97775 v 20.46884"
         id="path17" />
      <path
         style="font-weight:bold;font-size:9.87778px;line-height:0.94;font-family:'Ubuntu Mono';-inkscape-font-specification:'Ubuntu Mono Bold';text-align:start;letter-spacing:0px;text-anchor:start;fill:#1a1a1a;fill-opacity:1;stroke-width:2.55933"
         d="m 391.78952,461.26506 h -13.33356 v 20.71939 h 13.33356 13.33357 13.33287 v -20.71939 h -13.33287"
         id="path18" />
      <path
         style="font-weight:bold;font-size:9.87778px;line-height:0.94;font-family:'Ubuntu Mono';-inkscape-font-specification:'Ubuntu Mono Bold';text-align:start;letter-spacing:0px;text-anchor:start;fill:#1a1a1a;fill-opacity:1;stroke-width:3.13275"
         d="m 433.10891,401.94963 h 9.9894 v -20.71939 h -19.97775 v 20.46884"
         id="path19" />
    </g>
    <path
       style="font-weight:bold;font-size:9.87778px;line-height:0.94;font-family:'Ubuntu Mono';-inkscape-font-specification:'Ubuntu Mono Bold';text-align:start;letter-spacing:0px;text-anchor:start;display:inline;opacity:1;fill:#000000;fill-opacity:1;stroke-width:2.89132"
       d="m 583.42399,347.79627 v 56.68616 h -18.43407 v 19.12688 h 18.43407 v 132.26907 h 18.43407 v -56.68721 h 9.21655 v 18.89581 h 9.21656 v 18.89571 h 9.21657 v 18.89569 h 18.43406 v -19.12687 h -9.21655 v -18.89477 h -9.21751 v -18.89558 h -9.21657 v -18.66465 h 9.21657 v -18.89569 h 9.21751 v -19.12687 h -18.43408 v 18.89558 h -9.21656 v 18.89581 h -9.21655 v -56.45603 h 18.43311 v -19.12688 h -18.43311 v -56.68616 z"
       id="path1937" />
    <rect
       style="fill:#000000;fill-opacity:1;stroke-width:7.28349"
       id="rect39"
       width="40"
       height="20"
       x="262"
       y="394"
       ry="0" />
    <rect
       style="fill:#000000;fill-opacity:1;stroke-width:5.15021"
       id="rect40"
       width="20"
       height="20"
       x="262"
       y="354"
       ry="0" />
    <rect
       style="fill:#000000;fill-opacity:1;stroke-width:8.92042"
       id="rect41"
       width="60"
       height="20"
       x="322"
       y="374"
       ry="0" />
    <rect
       style="fill:#000000;fill-opacity:1;stroke-width:7.28349"
       id="rect2"
       width="40"
       height="20"
       x="751"
       y="364.46448"
       ry="0" />
    <rect
       style="fill:#000000;fill-opacity:1;stroke-width:5.15021"
       id="rect3"
       width="20"
       height="20"
       x="731"
       y="404"
       ry="0" />
    <rect
       style="fill:#000000;fill-opacity:1;stroke-width:8.92042"
       id="rect4"
       width="60"
       height="20"
       x="651"
       y="384.46448"
       ry="0" />
    <rect
       style="fill:#000000;fill-opacity:1;stroke-width:7.28349"
       id="rect5"
       width="40"
       height="20"
       x="732.19598"
       y="441.46448"
       ry="0" />
    <rect
       style="fill:#000000;fill-opacity:1;stroke-width:5.15021"
       id="rect6"
       width="20"
       height="20"
       x="752"
       y="536.35352"
       ry="0" />
    <rect
       style="fill:#000000;fill-opacity:1;stroke-width:7.28349"
       id="rect7"
       width="40"
       height="20"
       x="671"
       y="479.89966"
       ry="0" />
    <rect
       style="fill:#00ff00;fill-opacity:1;stroke-width:7.28349"
       id="rect8"
       width="40"
       height="20"
       x="789"
       y="404"
       ry="0" />
    <rect
       style="fill:#00ff00;fill-opacity:1;stroke-width:5.15021"
       id="rect9"
       width="20"
       height="20"
       x="789"
       y="463"
       ry="0" />
    <rect
       style="fill:#000000;fill-opacity:1;stroke-width:5.15021"
       id="rect10"
       width="20"
       height="20"
       x="402"
       y="434"
       ry="0" />
    <rect
       style="fill:#000000;fill-opacity:1;stroke-width:7.28349"
       id="rect12"
       width="40"
       height="20"
       x="402"
       y="534"
       ry="0" />
    <rect
       style="fill:#00ff00;fill-opacity:1;stroke-width:5.15021"
       id="rect13"
       width="20"
       height="20"
       x="213.25"
       y="368"
       ry="0" />
    <rect
       style="fill:#00ff00;fill-opacity:1;stroke-width:7.32943"
       id="rect15"
       width="40.506096"
       height="20"
       x="194.7439"
       y="428.125"
       ry="0" />
  </g>
</svg>
